REM MD5 a26b82c826a8903fdc16eaa9734238f4
FILE "Victory Boxing 2 (Europe) (Demo).bin" BINARY
  TRACK 01 MODE2/2352
    INDEX 01 00:00:00
  TRACK 02 AUDIO
    INDEX 00 03:08:14
    INDEX 01 03:10:14
  TRACK 03 AUDIO
    INDEX 00 05:54:40
    INDEX 01 05:56:40
  TRACK 04 AUDIO
    INDEX 00 06:04:05
    INDEX 01 06:06:05
  TRACK 05 AUDIO
    INDEX 00 06:13:39
    INDEX 01 06:15:39
REM LEADOUT 09:16:70
